<?xml version="1.0" encoding="UTF-8" standalone="no"?>
<!DOCTYPE svg PUBLIC "-//W3C//DTD SVG 1.1//EN" "http://www.w3.org/Graphics/SVG/1.1/DTD/svg11.dtd">
<svg version="1.1" xmlns="http://www.w3.org/2000/svg" xmlns:xlink="http://www.w3.org/1999/xlink" preserveAspectRatio="xMidYMid meet" viewBox="0 0 640 640" width="640" height="640"><defs><path d="M7.74 5.36L42.02 5.36L42.02 43.06L7.74 43.06L7.74 5.36Z" id="d19u7wL264"></path><path d="M50.6 5.36L84.88 5.36L84.88 43.06L50.6 43.06L50.6 5.36Z" id="bSqtXNDJf"></path><path d="M449.01 52.01L483.29 52.01L483.29 89.71L449.01 89.71L449.01 52.01Z" id="e4NdD7CUY"></path><path d="M365.32 52.01L399.6 52.01L399.6 89.71L365.32 89.71L365.32 52.01Z" id="c12i7ph758"></path><path d="M406.87 52.01L441.15 52.01L441.15 89.71L406.87 89.71L406.87 52.01Z" id="c4sWFr7RjR"></path><path d="M322.02 52.01L356.3 52.01L356.3 89.71L322.02 89.71L322.02 52.01Z" id="e2nyiFgige"></path><path d="M194.81 52.01L229.09 52.01L229.09 89.71L194.81 89.71L194.81 52.01Z" id="d2p0Lf38ZP"></path><path d="M279.07 52.01L313.35 52.01L313.35 89.71L279.07 89.71L279.07 52.01Z" id="bhidYkizx"></path><path d="M237.76 52.01L272.04 52.01L272.04 89.71L237.76 89.71L237.76 52.01Z" id="g2UtpyBY4r"></path><path d="M151.38 52.01L185.66 52.01L185.66 89.71L151.38 89.71L151.38 52.01Z" id="hdjRGsuvQ"></path><path d="M109.44 52.01L143.72 52.01L143.72 89.71L109.44 89.71L109.44 52.01Z" id="k1bXGBgVmh"></path><path d="M67.74 52.01L102.02 52.01L102.02 89.71L67.74 89.71L67.74 52.01Z" id="aQwTYCgg5"></path><path d="M492.02 52.01L526.3 52.01L526.3 89.71L492.02 89.71L492.02 52.01Z" id="b7Iuitpxme"></path><path d="M534.91 52.01L569.19 52.01L569.19 89.71L534.91 89.71L534.91 52.01Z" id="a3UdcvUaO1"></path><path d="M475.74 5.36L510.02 5.36L510.02 43.06L475.74 43.06L475.74 5.36Z" id="d2xO5EQg1"></path><path d="M392.06 5.36L426.34 5.36L426.34 43.06L392.06 43.06L392.06 5.36Z" id="bvdI5cb87"></path><path d="M433.6 5.36L467.88 5.36L467.88 43.06L433.6 43.06L433.6 5.36Z" id="cH5kumflG"></path><path d="M383.03 5.36L348.75 5.36L348.75 43.06L383.03 43.06L383.03 5.36Z" id="e9tuLbGt"></path><path d="M221.54 5.36L255.82 5.36L255.82 43.06L221.54 43.06L221.54 5.36Z" id="dajXi9gUc"></path><path d="M305.8 5.36L340.08 5.36L340.08 43.06L305.8 43.06L305.8 5.36Z" id="btf2oZI0N"></path><path d="M264.49 5.36L298.77 5.36L298.77 43.06L264.49 43.06L264.49 5.36Z" id="asLZYqfNb"></path><path d="M178.12 5.36L212.39 5.36L212.39 43.06L178.12 43.06L178.12 5.36Z" id="a9idIte9a"></path><path d="M136.18 5.36L170.45 5.36L170.45 43.06L136.18 43.06L136.18 5.36Z" id="a2gftucYkJ"></path><path d="M94.47 5.36L128.75 5.36L128.75 43.06L94.47 43.06L94.47 5.36Z" id="a5tj372Lu"></path><path d="M518.75 5.36L553.03 5.36L553.03 43.06L518.75 43.06L518.75 5.36Z" id="b6psgPlL9R"></path><path d="M459.58 98.94L493.86 98.94L493.86 136.64L459.58 136.64L459.58 98.94Z" id="diApwJj2b"></path><path d="M375.9 98.94L410.18 98.94L410.18 136.64L375.9 136.64L375.9 98.94Z" id="c83rzhLjL"></path><path d="M417.44 98.94L451.72 98.94L451.72 136.64L417.44 136.64L417.44 98.94Z" id="f1XHvRbJ"></path><path d="M366.87 98.94L332.59 98.94L332.59 136.64L366.87 136.64L366.87 98.94Z" id="f5nU1H51S9"></path><path d="M206.38 98.94L240.66 98.94L240.66 136.64L206.38 136.64L206.38 98.94Z" id="a2wA72xxxO"></path><path d="M289.64 98.94L323.92 98.94L323.92 136.64L289.64 136.64L289.64 98.94Z" id="a8990AhOK"></path><path d="M248.33 98.94L282.61 98.94L282.61 136.64L248.33 136.64L248.33 98.94Z" id="b10Szwpfmp"></path><path d="M162.96 98.94L197.24 98.94L197.24 136.64L162.96 136.64L162.96 98.94Z" id="ceAk9sscc"></path><path d="M121.02 98.94L155.3 98.94L155.3 136.64L121.02 136.64L121.02 98.94Z" id="joADeIEeg"></path><path d="M78.31 98.94L112.59 98.94L112.59 136.64L78.31 136.64L78.31 98.94Z" id="beNrGzBq"></path><path d="M502.59 98.94L536.87 98.94L536.87 136.64L502.59 136.64L502.59 98.94Z" id="q58pcyRxPb"></path><path d="M470.62 145.87L504.9 145.87L504.9 183.57L470.62 183.57L470.62 145.87Z" id="a2vV4pia1a"></path><path d="M386.94 145.87L421.22 145.87L421.22 183.57L386.94 183.57L386.94 145.87Z" id="cQyK9Br0S"></path><path d="M428.48 145.87L462.76 145.87L462.76 183.57L428.48 183.57L428.48 145.87Z" id="a3KbZYWGy6"></path><path d="M377.91 145.87L343.63 145.87L343.63 183.57L377.91 183.57L377.91 145.87Z" id="dYAxVmOMn"></path><path d="M216.42 145.87L250.7 145.87L250.7 183.57L216.42 183.57L216.42 145.87Z" id="d136vXzl0"></path><path d="M300.68 145.87L334.96 145.87L334.96 183.57L300.68 183.57L300.68 145.87Z" id="m19Z8NMdwK"></path><path d="M259.37 145.87L293.65 145.87L293.65 183.57L259.37 183.57L259.37 145.87Z" id="a1s5k0ORy1"></path><path d="M173 145.87L207.28 145.87L207.28 183.57L173 183.57L173 145.87Z" id="f2AgfpAjh0"></path><path d="M131.06 145.87L165.34 145.87L165.34 183.57L131.06 183.57L131.06 145.87Z" id="b1hh73ALJ5"></path><path d="M89.35 145.87L123.63 145.87L123.63 183.57L89.35 183.57L89.35 145.87Z" id="abbvITWBCx"></path><path d="M168.52 191.14L441.15 191.14L441.15 228.84L168.52 228.84L168.52 191.14Z" id="i2UQ3Mddi1"></path><path d="M7.49 145.87L78.31 145.87L78.31 183.57L7.49 183.57L7.49 145.87Z" id="b7JUAiEMF"></path><path d="M7.49 191.14L58.18 191.14L58.18 228.84L7.49 228.84L7.49 191.14Z" id="bMd6XSqZR"></path><path d="M577.46 52.01L628.16 52.01L628.16 89.71L577.46 89.71L577.46 52.01Z" id="a1vUZz7BCK"></path><path d="M7.49 52.01L58.18 52.01L58.18 89.71L7.49 89.71L7.49 52.01Z" id="c1mNsyQHGU"></path><path d="M109.44 191.14L160.13 191.14L160.13 228.84L109.44 228.84L109.44 191.14Z" id="a17oggLz3n"></path><path d="M534.91 191.14L585.6 191.14L585.6 228.84L534.91 228.84L534.91 191.14Z" id="a75NMiOoZ"></path><path d="M593.88 191.14L628.16 191.14L628.16 228.84L593.88 228.84L593.88 191.14Z" id="e1p701yaqu"></path><path d="M492.02 191.14L526.3 191.14L526.3 228.84L492.02 228.84L492.02 191.14Z" id="a2WavsD0L"></path><path d="M449.01 191.14L483.29 191.14L483.29 228.84L449.01 228.84L449.01 191.14Z" id="a1T9Q00D62"></path><path d="M67.74 191.14L102.02 191.14L102.02 228.84L67.74 228.84L67.74 191.14Z" id="aoPQtliK9"></path><path d="M563.13 5.36L628.16 5.36L628.16 43.06L563.13 43.06L563.13 5.36Z" id="bmCuR1Phd"></path><path d="M7.49 98.94L67.74 98.94L67.74 136.64L7.49 136.64L7.49 98.94Z" id="cFzuUF0pp"></path><path d="M518.75 145.87L628.16 145.87L628.16 180.41L518.75 180.41L518.75 145.87Z" id="b6iAvls5k"></path><path d="M548.32 98.94L628.16 98.94L628.16 136.64L548.32 136.64L548.32 98.94Z" id="d11MjLbGLn"></path></defs><g><g><g><g><g><use xlink:href="#d19u7wL264" opacity="1" fill-opacity="0" stroke="#a719e9" stroke-width="2" stroke-opacity="1"></use></g></g><g><g><use xlink:href="#bSqtXNDJf" opacity="1" fill-opacity="0" stroke="#a719e9" stroke-width="2" stroke-opacity="1"></use></g></g><g><g><use xlink:href="#e4NdD7CUY" opacity="1" fill-opacity="0" stroke="#a719e9" stroke-width="2" stroke-opacity="1"></use></g></g><g><g><use xlink:href="#c12i7ph758" opacity="1" fill-opacity="0" stroke="#a719e9" stroke-width="2" stroke-opacity="1"></use></g></g><g><g><use xlink:href="#c4sWFr7RjR" opacity="1" fill-opacity="0" stroke="#a719e9" stroke-width="2" stroke-opacity="1"></use></g></g><g><g><use xlink:href="#e2nyiFgige" opacity="1" fill-opacity="0" stroke="#a719e9" stroke-width="2" stroke-opacity="1"></use></g></g><g><g><use xlink:href="#d2p0Lf38ZP" opacity="1" fill-opacity="0" stroke="#a719e9" stroke-width="2" stroke-opacity="1"></use></g></g><g><g><use xlink:href="#bhidYkizx" opacity="1" fill-opacity="0" stroke="#a719e9" stroke-width="2" stroke-opacity="1"></use></g></g><g><g><use xlink:href="#g2UtpyBY4r" opacity="1" fill-opacity="0" stroke="#a719e9" stroke-width="2" stroke-opacity="1"></use></g></g><g><g><use xlink:href="#hdjRGsuvQ" opacity="1" fill-opacity="0" stroke="#a719e9" stroke-width="2" stroke-opacity="1"></use></g></g><g><g><use xlink:href="#k1bXGBgVmh" opacity="1" fill-opacity="0" stroke="#a719e9" stroke-width="2" stroke-opacity="1"></use></g></g><g><g><use xlink:href="#aQwTYCgg5" opacity="1" fill-opacity="0" stroke="#a719e9" stroke-width="2" stroke-opacity="1"></use></g></g><g><g><use xlink:href="#b7Iuitpxme" opacity="1" fill-opacity="0" stroke="#a719e9" stroke-width="2" stroke-opacity="1"></use></g></g><g><g><use xlink:href="#a3UdcvUaO1" opacity="1" fill-opacity="0" stroke="#a719e9" stroke-width="2" stroke-opacity="1"></use></g></g><g><g><use xlink:href="#d2xO5EQg1" opacity="1" fill-opacity="0" stroke="#a719e9" stroke-width="2" stroke-opacity="1"></use></g></g><g><g><use xlink:href="#bvdI5cb87" opacity="1" fill-opacity="0" stroke="#a719e9" stroke-width="2" stroke-opacity="1"></use></g></g><g><g><use xlink:href="#cH5kumflG" opacity="1" fill-opacity="0" stroke="#a719e9" stroke-width="2" stroke-opacity="1"></use></g></g><g><g><use xlink:href="#e9tuLbGt" opacity="1" fill-opacity="0" stroke="#a719e9" stroke-width="2" stroke-opacity="1"></use></g></g><g><g><use xlink:href="#dajXi9gUc" opacity="1" fill-opacity="0" stroke="#a719e9" stroke-width="2" stroke-opacity="1"></use></g></g><g><g><use xlink:href="#btf2oZI0N" opacity="1" fill-opacity="0" stroke="#a719e9" stroke-width="2" stroke-opacity="1"></use></g></g><g><g><use xlink:href="#asLZYqfNb" opacity="1" fill-opacity="0" stroke="#a719e9" stroke-width="2" stroke-opacity="1"></use></g></g><g><g><use xlink:href="#a9idIte9a" opacity="1" fill-opacity="0" stroke="#a719e9" stroke-width="2" stroke-opacity="1"></use></g></g><g><g><use xlink:href="#a2gftucYkJ" opacity="1" fill-opacity="0" stroke="#a719e9" stroke-width="2" stroke-opacity="1"></use></g></g><g><g><use xlink:href="#a5tj372Lu" opacity="1" fill-opacity="0" stroke="#a719e9" stroke-width="2" stroke-opacity="1"></use></g></g><g><g><use xlink:href="#b6psgPlL9R" opacity="1" fill-opacity="0" stroke="#a719e9" stroke-width="2" stroke-opacity="1"></use></g></g><g><g><use xlink:href="#diApwJj2b" opacity="1" fill-opacity="0" stroke="#a719e9" stroke-width="2" stroke-opacity="1"></use></g></g><g><g><use xlink:href="#c83rzhLjL" opacity="1" fill-opacity="0" stroke="#a719e9" stroke-width="2" stroke-opacity="1"></use></g></g><g><g><use xlink:href="#f1XHvRbJ" opacity="1" fill-opacity="0" stroke="#a719e9" stroke-width="2" stroke-opacity="1"></use></g></g><g><g><use xlink:href="#f5nU1H51S9" opacity="1" fill-opacity="0" stroke="#a719e9" stroke-width="2" stroke-opacity="1"></use></g></g><g><g><use xlink:href="#a2wA72xxxO" opacity="1" fill-opacity="0" stroke="#a719e9" stroke-width="2" stroke-opacity="1"></use></g></g><g><g><use xlink:href="#a8990AhOK" opacity="1" fill-opacity="0" stroke="#a719e9" stroke-width="2" stroke-opacity="1"></use></g></g><g><g><use xlink:href="#b10Szwpfmp" opacity="1" fill-opacity="0" stroke="#a719e9" stroke-width="2" stroke-opacity="1"></use></g></g><g><g><use xlink:href="#ceAk9sscc" opacity="1" fill-opacity="0" stroke="#a719e9" stroke-width="2" stroke-opacity="1"></use></g></g><g><g><use xlink:href="#joADeIEeg" opacity="1" fill-opacity="0" stroke="#a719e9" stroke-width="2" stroke-opacity="1"></use></g></g><g><g><use xlink:href="#beNrGzBq" opacity="1" fill-opacity="0" stroke="#a719e9" stroke-width="2" stroke-opacity="1"></use></g></g><g><g><use xlink:href="#q58pcyRxPb" opacity="1" fill-opacity="0" stroke="#a719e9" stroke-width="2" stroke-opacity="1"></use></g></g><g><g><use xlink:href="#a2vV4pia1a" opacity="1" fill-opacity="0" stroke="#a719e9" stroke-width="2" stroke-opacity="1"></use></g></g><g><g><use xlink:href="#cQyK9Br0S" opacity="1" fill-opacity="0" stroke="#a719e9" stroke-width="2" stroke-opacity="1"></use></g></g><g><g><use xlink:href="#a3KbZYWGy6" opacity="1" fill-opacity="0" stroke="#a719e9" stroke-width="2" stroke-opacity="1"></use></g></g><g><g><use xlink:href="#dYAxVmOMn" opacity="1" fill-opacity="0" stroke="#a719e9" stroke-width="2" stroke-opacity="1"></use></g></g><g><g><use xlink:href="#d136vXzl0" opacity="1" fill-opacity="0" stroke="#a719e9" stroke-width="2" stroke-opacity="1"></use></g></g><g><g><use xlink:href="#m19Z8NMdwK" opacity="1" fill-opacity="0" stroke="#a719e9" stroke-width="2" stroke-opacity="1"></use></g></g><g><g><use xlink:href="#a1s5k0ORy1" opacity="1" fill-opacity="0" stroke="#a719e9" stroke-width="2" stroke-opacity="1"></use></g></g><g><g><use xlink:href="#f2AgfpAjh0" opacity="1" fill-opacity="0" stroke="#a719e9" stroke-width="2" stroke-opacity="1"></use></g></g><g><g><use xlink:href="#b1hh73ALJ5" opacity="1" fill-opacity="0" stroke="#a719e9" stroke-width="2" stroke-opacity="1"></use></g></g><g><g><use xlink:href="#abbvITWBCx" opacity="1" fill-opacity="0" stroke="#a719e9" stroke-width="2" stroke-opacity="1"></use></g></g><g><g><use xlink:href="#i2UQ3Mddi1" opacity="1" fill-opacity="0" stroke="#a719e9" stroke-width="2" stroke-opacity="1"></use></g></g><g><g><use xlink:href="#b7JUAiEMF" opacity="1" fill-opacity="0" stroke="#a719e9" stroke-width="2" stroke-opacity="1"></use></g></g><g><g><use xlink:href="#bMd6XSqZR" opacity="1" fill-opacity="0" stroke="#a719e9" stroke-width="2" stroke-opacity="1"></use></g></g><g><g><use xlink:href="#a1vUZz7BCK" opacity="1" fill-opacity="0" stroke="#a719e9" stroke-width="2" stroke-opacity="1"></use></g></g><g><g><use xlink:href="#c1mNsyQHGU" opacity="1" fill-opacity="0" stroke="#a719e9" stroke-width="2" stroke-opacity="1"></use></g></g><g><g><use xlink:href="#a17oggLz3n" opacity="1" fill-opacity="0" stroke="#a719e9" stroke-width="2" stroke-opacity="1"></use></g></g><g><g><use xlink:href="#a75NMiOoZ" opacity="1" fill-opacity="0" stroke="#a719e9" stroke-width="2" stroke-opacity="1"></use></g></g><g><g><use xlink:href="#e1p701yaqu" opacity="1" fill-opacity="0" stroke="#a719e9" stroke-width="2" stroke-opacity="1"></use></g></g><g><g><use xlink:href="#a2WavsD0L" opacity="1" fill-opacity="0" stroke="#a719e9" stroke-width="2" stroke-opacity="1"></use></g></g><g><g><use xlink:href="#a1T9Q00D62" opacity="1" fill-opacity="0" stroke="#a719e9" stroke-width="2" stroke-opacity="1"></use></g></g><g><g><use xlink:href="#aoPQtliK9" opacity="1" fill-opacity="0" stroke="#a719e9" stroke-width="2" stroke-opacity="1"></use></g></g><g><g><use xlink:href="#bmCuR1Phd" opacity="1" fill-opacity="0" stroke="#a719e9" stroke-width="2" stroke-opacity="1"></use></g></g><g><g><use xlink:href="#cFzuUF0pp" opacity="1" fill-opacity="0" stroke="#a719e9" stroke-width="2" stroke-opacity="1"></use></g></g><g><g><use xlink:href="#b6iAvls5k" opacity="1" fill-opacity="0" stroke="#a719e9" stroke-width="2" stroke-opacity="1"></use></g></g><g><g><use xlink:href="#d11MjLbGLn" opacity="1" fill-opacity="0" stroke="#a719e9" stroke-width="2" stroke-opacity="1"></use></g></g></g></g></g></svg>