<?xml version="1.0" encoding="UTF-8" standalone="no"?>
<!DOCTYPE svg PUBLIC "-//W3C//DTD SVG 1.1//EN" "http://www.w3.org/Graphics/SVG/1.1/DTD/svg11.dtd">
<svg version="1.1" xmlns="http://www.w3.org/2000/svg" xmlns:xlink="http://www.w3.org/1999/xlink" preserveAspectRatio="xMidYMid meet" viewBox="0 0 640 640" width="640" height="640"><defs><path d="M254.9 144.87L289.18 144.87L289.18 182.87L254.9 182.87L254.9 144.87Z" id="ahPJWmbkC"></path><path d="M382.65 144.87L416.93 144.87L416.93 182.57L382.65 182.57L382.65 144.87Z" id="cdrCZeUe2"></path><path d="M492.02 52.01L526.3 52.01L526.3 89.71L492.02 89.71L492.02 52.01Z" id="b74liDxXuS"></path><path d="M502.59 98.94L536.87 98.94L536.87 136.64L502.59 136.64L502.59 98.94Z" id="b1jyHZYn4U"></path><path d="M7.49 145.87L78.31 145.87L78.31 183.57L7.49 183.57L7.49 145.87Z" id="cdQhJS1Nj"></path><path d="M109.44 191.14L160.13 191.14L160.13 228.84L109.44 228.84L109.44 191.14Z" id="b9ZXV4Duk"></path><path d="M67.74 191.14L102.02 191.14L102.02 228.84L67.74 228.84L67.74 191.14Z" id="a1jrGHuDpH"></path><path d="M50.6 5.36L84.88 5.36L84.88 43.06L50.6 43.06L50.6 5.36Z" id="aJe9XbQyI"></path><path d="M7.49 52.01L58.18 52.01L58.18 89.71L7.49 89.71L7.49 52.01Z" id="e1VCoFnBN"></path><path d="M108.3 52.71L142.58 52.71L142.58 90.42L108.3 90.42L108.3 52.71Z" id="d1SVh8qF9"></path><path d="M66.6 52.71L100.88 52.71L100.88 90.42L66.6 90.42L66.6 52.71Z" id="b17IDeNOqi"></path><path d="M76.87 99.71L111.15 99.71L111.15 137.42L76.87 137.42L76.87 99.71Z" id="a1PMJ7A3s9"></path><path d="M94.47 5.36L128.75 5.36L128.75 43.06L94.47 43.06L94.47 5.36Z" id="a2vV8iw44w"></path><path d="M7.74 5.36L42.02 5.36L42.02 43.06L7.74 43.06L7.74 5.36Z" id="f2e0xEqqMG"></path><path d="M7.49 191.14L58.18 191.14L58.18 228.84L7.49 228.84L7.49 191.14Z" id="b2JoNozSG"></path><path d="M84.88 144.87L119.16 144.87L119.16 182.57L84.88 182.57L84.88 144.87Z" id="f3T0dqkWWb"></path><path d="M332.15 99.71L366.43 99.71L366.43 137.42L332.15 137.42L332.15 99.71Z" id="aa0W4gpis"></path><path d="M136.18 5.36L170.45 5.36L170.45 43.06L136.18 43.06L136.18 5.36Z" id="acplCqhlU"></path><path d="M449.01 52.42L483.29 52.42L483.29 90.42L449.01 90.42L449.01 52.42Z" id="c5u3fVtt0"></path><path d="M7.49 98.94L67.74 98.94L67.74 136.64L7.49 136.64L7.49 98.94Z" id="lhPxW9J95"></path><path d="M406.73 52.71L441.01 52.71L441.01 90.42L406.73 90.42L406.73 52.71Z" id="c3U7i9hjU"></path><path d="M150.24 52.71L184.52 52.71L184.52 90.42L150.24 90.42L150.24 52.71Z" id="b5STQogivO"></path><path d="M160.52 99.71L194.8 99.71L194.8 137.42L160.52 137.42L160.52 99.71Z" id="b2ZaCcDS5I"></path><path d="M277.93 52.71L312.21 52.71L312.21 90.42L277.93 90.42L277.93 52.71Z" id="cfwXXHUHF"></path><path d="M320.88 52.71L355.16 52.71L355.16 90.42L320.88 90.42L320.88 52.71Z" id="aj1yJRNxe"></path><path d="M305.8 5.36L340.08 5.36L340.08 43.06L305.8 43.06L305.8 5.36Z" id="d9WVd82Jf"></path><path d="M178.12 5.36L212.39 5.36L212.39 43.06L178.12 43.06L178.12 5.36Z" id="a3rEW3WqGc"></path><path d="M193.67 52.71L227.95 52.71L227.95 90.42L193.67 90.42L193.67 52.71Z" id="f27omHQyZ"></path><path d="M236.62 52.71L270.9 52.71L270.9 90.71L236.62 90.71L236.62 52.71Z" id="a1f2zZylJQ"></path><path d="M264.49 5.36L298.77 5.36L298.77 43.06L264.49 43.06L264.49 5.36Z" id="c1zThFUVDO"></path><path d="M221.54 5.36L255.82 5.36L255.82 43.06L221.54 43.06L221.54 5.36Z" id="bSBw9b5ga"></path><path d="M383.03 5.36L348.75 5.36L348.75 43.06L383.03 43.06L383.03 5.36Z" id="c3TjHS9L1n"></path><path d="M118.58 99.71L152.86 99.71L152.86 137.42L118.58 137.42L118.58 99.71Z" id="a6bTnpabn"></path><path d="M246.89 99.71L281.17 99.71L281.17 137.71L246.89 137.71L246.89 99.71Z" id="cgxGQ68Eo"></path><path d="M289.18 99.71L323.46 99.71L323.46 137.42L289.18 137.42L289.18 99.71Z" id="e1ciKKjLnj"></path><path d="M203.94 99.71L238.22 99.71L238.22 137.42L203.94 137.42L203.94 99.71Z" id="mpQ5N3ROv"></path><path d="M392.06 5.36L426.34 5.36L426.34 43.06L392.06 43.06L392.06 5.36Z" id="bygHUbGVX"></path><path d="M518.75 5.36L553.03 5.36L553.03 43.06L518.75 43.06L518.75 5.36Z" id="f3NaFCjNfF"></path><path d="M475.74 5.36L510.02 5.36L510.02 43.06L475.74 43.06L475.74 5.36Z" id="d1rIRXdq4"></path><path d="M563.13 5.36L628.16 5.36L628.16 43.06L563.13 43.06L563.13 5.36Z" id="cbM2K9uo5"></path><path d="M433.6 5.36L467.88 5.36L467.88 43.06L433.6 43.06L433.6 5.36Z" id="a2bRQoR7eM"></path><path d="M364.18 52.71L398.46 52.71L398.46 90.42L364.18 90.42L364.18 52.71Z" id="aXtyiWtW9"></path><path d="M375.46 99.71L409.74 99.71L409.74 137.42L375.46 137.42L375.46 99.71Z" id="b10V43OopQ"></path><path d="M418 99.71L452.28 99.71L452.28 137.42L418 137.42L418 99.71Z" id="akaKxh0OV"></path><path d="M460.28 99.71L494.56 99.71L494.56 137.71L460.28 137.71L460.28 99.71Z" id="b3ngNeP4yy"></path><path d="M534.91 52.01L569.19 52.01L569.19 89.71L534.91 89.71L534.91 52.01Z" id="g7eNBtAlB"></path><path d="M548.32 98.94L628.16 98.94L628.16 136.64L548.32 136.64L548.32 98.94Z" id="d1i9EkZ8f1"></path><path d="M577.46 52.01L628.16 52.01L628.16 89.71L577.46 89.71L577.46 52.01Z" id="c20BnyMIm1"></path><path d="M449.01 191.14L483.29 191.14L483.29 228.84L449.01 228.84L449.01 191.14Z" id="lT8KGUByu"></path><path d="M339.16 144.87L373.44 144.87L373.44 182.57L339.16 182.57L339.16 144.87Z" id="fczcovIP9"></path><path d="M296.21 144.87L330.48 144.87L330.48 182.57L296.21 182.57L296.21 144.87Z" id="b39XOGzSm"></path><path d="M211.95 144.87L246.23 144.87L246.23 182.57L211.95 182.57L211.95 144.87Z" id="fydQeDIVm"></path><path d="M534.91 191.14L585.6 191.14L585.6 228.84L534.91 228.84L534.91 191.14Z" id="b9XGMarjc"></path><path d="M168.52 191.14L441.15 191.14L441.15 228.84L168.52 228.84L168.52 191.14Z" id="h2IZOMJJtj"></path><path d="M492.02 191.14L526.3 191.14L526.3 228.84L492.02 228.84L492.02 191.14Z" id="c34pkINd2s"></path><path d="M593.88 191.14L628.16 191.14L628.16 228.84L593.88 228.84L593.88 191.14Z" id="bRFnQBDbt"></path><path d="M126.58 144.87L160.86 144.87L160.86 182.57L126.58 182.57L126.58 144.87Z" id="e1JnIOIXf"></path><path d="M168.52 144.87L202.8 144.87L202.8 182.57L168.52 182.57L168.52 144.87Z" id="a1kFocUt4q"></path><path d="M518.75 145.87L628.16 145.87L628.16 180.41L518.75 180.41L518.75 145.87Z" id="bxHxXz7vL"></path><path d="M426.6 144.87L460.88 144.87L460.88 182.57L426.6 182.57L426.6 144.87Z" id="deOzpzzRU"></path><path d="M471.53 145.87L505.81 145.87L505.81 183.57L471.53 183.57L471.53 145.87Z" id="hfs3MZE15"></path></defs><g><g><g><g><use xlink:href="#ahPJWmbkC" opacity="1" fill-opacity="0" stroke="#a719e9" stroke-width="2" stroke-opacity="1"></use></g></g><g><g><use xlink:href="#cdrCZeUe2" opacity="1" fill-opacity="0" stroke="#a719e9" stroke-width="2" stroke-opacity="1"></use></g></g><g><g><use xlink:href="#b74liDxXuS" opacity="1" fill-opacity="0" stroke="#a719e9" stroke-width="2" stroke-opacity="1"></use></g></g><g><g><use xlink:href="#b1jyHZYn4U" opacity="1" fill-opacity="0" stroke="#a719e9" stroke-width="2" stroke-opacity="1"></use></g></g><g><g><use xlink:href="#cdQhJS1Nj" opacity="1" fill-opacity="0" stroke="#a719e9" stroke-width="2" stroke-opacity="1"></use></g></g><g><g><use xlink:href="#b9ZXV4Duk" opacity="1" fill-opacity="0" stroke="#a719e9" stroke-width="2" stroke-opacity="1"></use></g></g><g><g><use xlink:href="#a1jrGHuDpH" opacity="1" fill-opacity="0" stroke="#a719e9" stroke-width="2" stroke-opacity="1"></use></g></g><g><g><use xlink:href="#aJe9XbQyI" opacity="1" fill-opacity="0" stroke="#a719e9" stroke-width="2" stroke-opacity="1"></use></g></g><g><g><use xlink:href="#e1VCoFnBN" opacity="1" fill-opacity="0" stroke="#a719e9" stroke-width="2" stroke-opacity="1"></use></g></g><g><g><use xlink:href="#d1SVh8qF9" opacity="1" fill-opacity="0" stroke="#a719e9" stroke-width="2" stroke-opacity="1"></use></g></g><g><g><use xlink:href="#b17IDeNOqi" opacity="1" fill-opacity="0" stroke="#a719e9" stroke-width="2" stroke-opacity="1"></use></g></g><g><g><use xlink:href="#a1PMJ7A3s9" opacity="1" fill-opacity="0" stroke="#a719e9" stroke-width="2" stroke-opacity="1"></use></g></g><g><g><use xlink:href="#a2vV8iw44w" opacity="1" fill-opacity="0" stroke="#a719e9" stroke-width="2" stroke-opacity="1"></use></g></g><g><g><use xlink:href="#f2e0xEqqMG" opacity="1" fill-opacity="0" stroke="#a719e9" stroke-width="2" stroke-opacity="1"></use></g></g><g><g><use xlink:href="#b2JoNozSG" opacity="1" fill-opacity="0" stroke="#a719e9" stroke-width="2" stroke-opacity="1"></use></g></g><g><g><use xlink:href="#f3T0dqkWWb" opacity="1" fill-opacity="0" stroke="#a719e9" stroke-width="2" stroke-opacity="1"></use></g></g><g><g><use xlink:href="#aa0W4gpis" opacity="1" fill-opacity="0" stroke="#a719e9" stroke-width="2" stroke-opacity="1"></use></g></g><g><g><use xlink:href="#acplCqhlU" opacity="1" fill-opacity="0" stroke="#a719e9" stroke-width="2" stroke-opacity="1"></use></g></g><g><g><use xlink:href="#c5u3fVtt0" opacity="1" fill-opacity="0" stroke="#a719e9" stroke-width="2" stroke-opacity="1"></use></g></g><g><g><use xlink:href="#lhPxW9J95" opacity="1" fill-opacity="0" stroke="#a719e9" stroke-width="2" stroke-opacity="1"></use></g></g><g><g><use xlink:href="#c3U7i9hjU" opacity="1" fill-opacity="0" stroke="#a719e9" stroke-width="2" stroke-opacity="1"></use></g></g><g><g><use xlink:href="#b5STQogivO" opacity="1" fill-opacity="0" stroke="#a719e9" stroke-width="2" stroke-opacity="1"></use></g></g><g><g><use xlink:href="#b2ZaCcDS5I" opacity="1" fill-opacity="0" stroke="#a719e9" stroke-width="2" stroke-opacity="1"></use></g></g><g><g><use xlink:href="#cfwXXHUHF" opacity="1" fill-opacity="0" stroke="#a719e9" stroke-width="2" stroke-opacity="1"></use></g></g><g><g><use xlink:href="#aj1yJRNxe" opacity="1" fill-opacity="0" stroke="#a719e9" stroke-width="2" stroke-opacity="1"></use></g></g><g><g><use xlink:href="#d9WVd82Jf" opacity="1" fill-opacity="0" stroke="#a719e9" stroke-width="2" stroke-opacity="1"></use></g></g><g><g><use xlink:href="#a3rEW3WqGc" opacity="1" fill-opacity="0" stroke="#a719e9" stroke-width="2" stroke-opacity="1"></use></g></g><g><g><use xlink:href="#f27omHQyZ" opacity="1" fill-opacity="0" stroke="#a719e9" stroke-width="2" stroke-opacity="1"></use></g></g><g><g><use xlink:href="#a1f2zZylJQ" opacity="1" fill-opacity="0" stroke="#a719e9" stroke-width="2" stroke-opacity="1"></use></g></g><g><g><use xlink:href="#c1zThFUVDO" opacity="1" fill-opacity="0" stroke="#a719e9" stroke-width="2" stroke-opacity="1"></use></g></g><g><g><use xlink:href="#bSBw9b5ga" opacity="1" fill-opacity="0" stroke="#a719e9" stroke-width="2" stroke-opacity="1"></use></g></g><g><g><use xlink:href="#c3TjHS9L1n" opacity="1" fill-opacity="0" stroke="#a719e9" stroke-width="2" stroke-opacity="1"></use></g></g><g><g><use xlink:href="#a6bTnpabn" opacity="1" fill-opacity="0" stroke="#a719e9" stroke-width="2" stroke-opacity="1"></use></g></g><g><g><use xlink:href="#cgxGQ68Eo" opacity="1" fill-opacity="0" stroke="#a719e9" stroke-width="2" stroke-opacity="1"></use></g></g><g><g><use xlink:href="#e1ciKKjLnj" opacity="1" fill-opacity="0" stroke="#a719e9" stroke-width="2" stroke-opacity="1"></use></g></g><g><g><use xlink:href="#mpQ5N3ROv" opacity="1" fill-opacity="0" stroke="#a719e9" stroke-width="2" stroke-opacity="1"></use></g></g><g><g><use xlink:href="#bygHUbGVX" opacity="1" fill-opacity="0" stroke="#a719e9" stroke-width="2" stroke-opacity="1"></use></g></g><g><g><use xlink:href="#f3NaFCjNfF" opacity="1" fill-opacity="0" stroke="#a719e9" stroke-width="2" stroke-opacity="1"></use></g></g><g><g><use xlink:href="#d1rIRXdq4" opacity="1" fill-opacity="0" stroke="#a719e9" stroke-width="2" stroke-opacity="1"></use></g></g><g><g><use xlink:href="#cbM2K9uo5" opacity="1" fill-opacity="0" stroke="#a719e9" stroke-width="2" stroke-opacity="1"></use></g></g><g><g><use xlink:href="#a2bRQoR7eM" opacity="1" fill-opacity="0" stroke="#a719e9" stroke-width="2" stroke-opacity="1"></use></g></g><g><g><use xlink:href="#aXtyiWtW9" opacity="1" fill-opacity="0" stroke="#a719e9" stroke-width="2" stroke-opacity="1"></use></g></g><g><g><use xlink:href="#b10V43OopQ" opacity="1" fill-opacity="0" stroke="#a719e9" stroke-width="2" stroke-opacity="1"></use></g></g><g><g><use xlink:href="#akaKxh0OV" opacity="1" fill-opacity="0" stroke="#a719e9" stroke-width="2" stroke-opacity="1"></use></g></g><g><g><use xlink:href="#b3ngNeP4yy" opacity="1" fill-opacity="0" stroke="#a719e9" stroke-width="2" stroke-opacity="1"></use></g></g><g><g><use xlink:href="#g7eNBtAlB" opacity="1" fill-opacity="0" stroke="#a719e9" stroke-width="2" stroke-opacity="1"></use></g></g><g><g><use xlink:href="#d1i9EkZ8f1" opacity="1" fill-opacity="0" stroke="#a719e9" stroke-width="2" stroke-opacity="1"></use></g></g><g><g><use xlink:href="#c20BnyMIm1" opacity="1" fill-opacity="0" stroke="#a719e9" stroke-width="2" stroke-opacity="1"></use></g></g><g><g><use xlink:href="#lT8KGUByu" opacity="1" fill-opacity="0" stroke="#a719e9" stroke-width="2" stroke-opacity="1"></use></g></g><g><g><use xlink:href="#fczcovIP9" opacity="1" fill-opacity="0" stroke="#a719e9" stroke-width="2" stroke-opacity="1"></use></g></g><g><g><use xlink:href="#b39XOGzSm" opacity="1" fill-opacity="0" stroke="#a719e9" stroke-width="2" stroke-opacity="1"></use></g></g><g><g><use xlink:href="#fydQeDIVm" opacity="1" fill-opacity="0" stroke="#a719e9" stroke-width="2" stroke-opacity="1"></use></g></g><g><g><use xlink:href="#b9XGMarjc" opacity="1" fill-opacity="0" stroke="#a719e9" stroke-width="2" stroke-opacity="1"></use></g></g><g><g><use xlink:href="#h2IZOMJJtj" opacity="1" fill-opacity="0" stroke="#a719e9" stroke-width="2" stroke-opacity="1"></use></g></g><g><g><use xlink:href="#c34pkINd2s" opacity="1" fill-opacity="0" stroke="#a719e9" stroke-width="2" stroke-opacity="1"></use></g></g><g><g><use xlink:href="#bRFnQBDbt" opacity="1" fill-opacity="0" stroke="#a719e9" stroke-width="2" stroke-opacity="1"></use></g></g><g><g><use xlink:href="#e1JnIOIXf" opacity="1" fill-opacity="0" stroke="#a719e9" stroke-width="2" stroke-opacity="1"></use></g></g><g><g><use xlink:href="#a1kFocUt4q" opacity="1" fill-opacity="0" stroke="#a719e9" stroke-width="2" stroke-opacity="1"></use></g></g><g><g><use xlink:href="#bxHxXz7vL" opacity="1" fill-opacity="0" stroke="#a719e9" stroke-width="2" stroke-opacity="1"></use></g></g><g><g><use xlink:href="#deOzpzzRU" opacity="1" fill-opacity="0" stroke="#a719e9" stroke-width="2" stroke-opacity="1"></use></g></g><g><g><use xlink:href="#hfs3MZE15" opacity="1" fill-opacity="0" stroke="#a719e9" stroke-width="2" stroke-opacity="1"></use></g></g></g></g></svg>